<?xml version="1.0" standalone="no"?>
<!DOCTYPE svg PUBLIC "-//W3C//DTD SVG 20010904//EN"
 "http://www.w3.org/TR/2001/REC-SVG-20010904/DTD/svg10.dtd">
<svg version="1.0" xmlns="http://www.w3.org/2000/svg"
 width="512.000000pt" height="512.000000pt" viewBox="0 0 512.000000 512.000000"
 preserveAspectRatio="xMidYMid meet">
<metadata>
Created by potrace 1.14, written by Peter Selinger 2001-2017
</metadata>
<g transform="translate(0.000000,512.000000) scale(0.100000,-0.100000)"
fill="#000000" stroke="none">
<path d="M2420 5011 c-100 -32 -141 -61 -289 -204 -207 -200 -346 -295 -561
-384 -77 -31 -223 -75 -295 -89 -22 -4 -47 -9 -55 -10 -8 -2 -35 -6 -60 -9
-25 -3 -65 -8 -90 -11 -217 -28 -380 -166 -434 -369 -14 -52 -16 -131 -13
-625 2 -311 7 -576 10 -590 3 -14 8 -47 12 -75 5 -45 17 -119 30 -185 3 -14 7
-37 10 -51 11 -60 56 -221 88 -314 117 -342 271 -622 501 -912 100 -126 959
-982 1023 -1020 94 -55 162 -72 269 -69 115 3 125 5 210 45 74 34 95 55 624
581 396 394 410 409 525 565 166 225 279 430 385 699 61 156 150 495 150 573
0 34 -25 73 -46 73 -13 0 -14 12 -8 78 4 42 8 88 8 101 1 16 12 27 34 37 56
23 72 115 27 159 -13 14 -31 25 -39 25 -12 0 -14 17 -13 96 1 94 2 96 29 110
15 8 32 23 38 34 17 31 12 601 -6 667 -54 204 -227 346 -449 368 -59 6 -190
29 -284 51 -83 18 -242 80 -341 133 -162 86 -255 156 -425 321 -139 135 -190
171 -286 201 -78 24 -204 24 -279 0z"/>
</g>
</svg>
